<svg xmlns="http://www.w3.org/2000/svg" xmlns:xlink="http://www.w3.org/1999/xlink" viewBox="0 0 205 134" fill-rule="evenodd" stroke-linejoin="round" stroke-miterlimit="2" xmlns:v="https://vecta.io/nano"><style><![CDATA[.B{fill:#000101}.C{fill-rule:nonzero}]]></style><g class="C"><path d="M74.552 61.289l1.183.097 1.71-.055-1.186-.095-1.707.053z" class="B"/><path d="M71.721 74.322c-1.531 4.078-3.617 7.842-6.148 11.128-2.557 3.321-5.581 6.173-8.956 8.384-3.427 2.242-7.229 3.827-11.292 4.574l1.154.224h.01c4.063-.749 7.865-2.345 11.295-4.594 3.377-2.218 6.401-5.079 8.961-8.411 2.535-3.301 4.624-7.077 6.156-11.167 1.524-4.07 2.507-8.476 2.834-13.074l-1.174-.096h-.01a46.37 46.37 0 0 1-2.83 13.032z" fill="url(#A)"/><path d="M51.225 96.675l-1.911.709-1.966.578-.138.033v.002a.84.84 0 0 1-.072.017l-.04.009-.689.162a.63.63 0 0 1-.067.016c-.036.01-.065.013-.095.021l-.051.012c-.009.002-.018.004-.027.004l-.844.17 1.153.224h.011l.075-.015c.012-.001.024-.004.034-.006.017-.004.03-.005.047-.007l.077-.016c.005 0 .013-.002.021-.002l.06-.014 1.703-.387.725-.195.067-.021 2.268-.753c.007-.004.014-.005.022-.01l.05-.017.039-.016h.002l.707-.281 1.339-.586h.005a1.11 1.11 0 0 1 .104-.05l.053-.026c.011-.006.024-.012.037-.017l.029-.014.075-.035.215-.106-1.164-.211-1.854.828z" fill="url(#B)"/><path d="M66.883 83.646c-.006.008-.01.015-.016.025l-.054.078-.041.061-.049.066-.051.075-2.389 3.088c-1.055 1.232-2.176 2.389-3.357 3.459a35.4 35.4 0 0 1-3.744 2.957l-.397.267c-.008.004-.016.008-.022.014s-.023.015-.034.023l-.112.075-1.508.93c-.025.013-.044.025-.063.037-.007.003-.015.007-.018.009l-.067.039a.68.68 0 0 1-.055.03c-.007.003-.015.009-.024.013l-.058.034-1.745.921 1.164.211.299-.149.082-.04.086-.043.038-.02.034-.019.049-.023c.008-.005.011-.007.018-.01a32.64 32.64 0 0 0 3.5-2.096l1.261-.91.055-.039.037-.028a.12.12 0 0 1 .026-.02c2.601-1.98 4.96-4.355 7.017-7.034l1.653-2.315v-.002l-1.169-.167h-.007l-.339.503z" fill="url(#C)"/><path d="M71.279 75.459l-.063.148-.022.055-.025.059-.028.071-.019.042-.045.109c-.006.013-.012.025-.017.041l-.036.084-.016.035-.05.117-.053.129-.659 1.451-.01.022-.038.08-.66 1.319-.856 1.564-.052.092-.05.085-.022.035-.053.092-.818 1.342h-.002l-.075.12-.075.118-.003.004-.076.115-.233.354 1.176.168 1.943-3.231.916-1.785.123-.253a.17.17 0 0 1 .021-.045l.029-.063.027-.056.047-.104c.006-.014.016-.029.022-.043l.032-.073c.005-.007.009-.017.013-.025l.235-.513.026-.057.015-.037.786-1.871-1.179-.139-.176.444z" fill="url(#D)"/><path d="M73.095 70.033l-.487 1.692-.243.765c-.002.008-.004.013-.007.021l-.02.057-.617 1.754-.174.455-.092.238 1.179.139.605-1.633.209-.608a45.97 45.97 0 0 0 1.25-4.482l-1.167-.118h-.013l-.423 1.72z" fill="url(#E)"/><path d="M74.378 63.214l-.015.113-.223 1.686-.283 1.658-.339 1.641 1.173.119h.007c.415-1.838.724-3.725.917-5.646l.01-.098.086-.967-1.184-.097-.149 1.591z" fill="url(#F)"/><path d="M74.546 61.363v.01l-.015.205v.005c-.001.012-.004.026-.004.04l1.18.097h.004l.007-.084.004-.084.009-.084.004-.082-1.181-.097h-.003c-.001.025 0 .05-.005.074z" fill="url(#G)"/><path d="M45.283 100.729l1.157.232.044-2.328-1.158-.227-.043 2.323z" class="B"/><path d="M75.735 61.386c-.327 4.598-1.31 9.004-2.834 13.074-1.532 4.09-3.621 7.866-6.156 11.167-2.56 3.332-5.584 6.193-8.961 8.411-3.431 2.25-7.235 3.846-11.3 4.595l-.045 2.327.001.001c4.322-.799 8.368-2.505 12.008-4.909 3.586-2.367 6.795-5.419 9.508-8.968 2.682-3.512 4.893-7.524 6.508-11.874 1.611-4.321 2.644-9.001 2.981-13.878l-.001-.001-1.709.055z" fill="url(#H)"/></g><path d="M47.207 60.064l-1.148-.098.028-.32 1.147.098-.027.32z" class="B"/><g class="C"><path d="M46.066 59.646l1.169.098 33.683-.907-1.184-.085-33.668.894z" fill="url(#I)"/><path d="M47.235 59.744l-.006.322 33.683-.931.006-.297-33.683.906z" class="B"/><path d="M46.817 20.384c4.087.541 7.879 1.966 11.254 4.083 3.321 2.085 6.253 4.847 8.687 8.115 2.404 3.23 4.332 6.966 5.683 11.056 1.337 4.058 2.114 8.487 2.219 13.147l1.184.082c-.104-4.672-.879-9.116-2.219-13.187-1.347-4.104-3.275-7.852-5.68-11.09-2.434-3.279-5.366-6.05-8.691-8.143-3.375-2.122-7.165-3.55-11.253-4.096l-.029-.001-1.155.034z" fill="url(#J)"/><path d="M74.507 53.912l.035.422.043.652c0 .017.003.033.004.05v.031l.007.083v.013l.005.093.003.041.003.068.005.097.048 1.323 1.184.082-.015-.569-.026-.603v-.038l-.043-.752-.018-.27-.019-.273-.015-.197-.022-.266-1.185-.074.006.087z" fill="url(#K)"/><path d="M46.817 20.384c3.083.408 5.995 1.319 8.691 2.651l.074.037.074.037c.01.004.018.009.027.013l.051.026a.18.18 0 0 1 .034.017c.014.008.029.014.045.022s.027.015.04.02l.038.022.053.025c.007.005.015.009.024.014l.071.035 1.488.832c1.654.988 3.216 2.143 4.668 3.442l.07.062.066.061.07.059.066.061.066.062.066.06c.006.006.01.012.017.016l.049.047a.12.12 0 0 1 .016.016.49.49 0 0 1 .048.043c.006.007.014.015.023.022.016.013.029.027.045.043.008.006.015.011.019.016l.053.051.146.138.025.023.042.041a.35.35 0 0 0 .028.027l.036.036c.012.01.023.021.035.033l.03.03c.014.012.026.025.039.037l.025.025.04.039a.29.29 0 0 1 .024.025c.016.012.027.027.042.039l.021.023.043.042c.007.008.015.015.022.022l.043.043c.008.005.013.013.02.02l.042.042.024.023c.013.015.027.028.042.043.006.005.012.012.019.018l.045.047c.006.005.013.011.018.018l.046.046c.004.006.011.011.014.016l.049.05.063.066.063.065.359.377.058.062c.003.005.009.011.016.016.011.016.027.03.04.045l.022.024.038.042a.32.32 0 0 0 .026.026l.032.037.029.033.033.036.028.03c.01.013.022.024.032.035s.021.024.032.036l.03.032.031.036.029.031.034.04.026.029.036.041c.009.008.017.017.025.026a.67.67 0 0 0 .043.05c.005.006.012.012.016.018l.056.065.937 1.115.903 1.175.049.066c.006.007.011.014.015.02l.032.046c.009.009.018.023.026.034l.022.03.034.045a37.74 37.74 0 0 1 3.031 4.972l.038.075.036.073.014.025a.4.4 0 0 0 .026.055c.006.011.012.021.016.034s.016.028.024.043l.022.045.018.037.026.051c.005.012.009.021.015.031l.027.058.014.027.033.068.046.094 1.318 3.042a43.12 43.12 0 0 1 2.246 8.181l.018.098.017.1c0 .008.002.015.002.023.007.025.01.051.016.078.001.007.001.016.002.025.007.026.009.052.013.077.003.009.004.017.005.026l.012.072.004.031.011.072.005.03.011.07c.003.011.004.022.005.032l.012.07c.001.01.004.023.003.033l.011.061a.22.22 0 0 1 .005.044l.01.054c.001.017.005.032.008.048s.003.031.007.045l.008.057.322 2.797 1.185.074c-.366-4.324-1.313-8.419-2.75-12.163-.229-.588-.466-1.17-.717-1.741-.016-.034-.026-.061-.038-.087l-.037-.084-.005-.012-.033-.074c-.017-.038-.029-.061-.038-.083-.002-.009-.008-.018-.011-.026-.01-.021-.019-.041-.028-.062-.005-.007-.007-.014-.01-.022l-.028-.064c-.006-.01-.01-.018-.014-.028-.008-.019-.019-.038-.027-.058-.003-.008-.007-.017-.01-.026-.01-.019-.018-.039-.029-.06-.005-.01-.01-.02-.014-.03l-.05-.108c-.006-.01-.01-.024-.016-.035s-.013-.027-.019-.04-.014-.031-.023-.047-.01-.024-.016-.037a1.22 1.22 0 0 1-.025-.051c-.005-.012-.01-.024-.015-.034-.009-.017-.016-.034-.026-.052-.005-.013-.011-.026-.018-.038-.008-.017-.015-.034-.024-.051-.004-.011-.011-.022-.017-.034l-.024-.052c-.006-.011-.01-.022-.015-.033l-.027-.054c-.006-.014-.01-.025-.017-.036s-.014-.032-.023-.048l-.019-.04c-.008-.014-.016-.031-.025-.047s-.012-.025-.016-.037c-.008-.017-.018-.033-.026-.05-.005-.012-.011-.024-.018-.035-.009-.017-.016-.033-.024-.05s-.012-.025-.018-.037-.016-.029-.023-.046-.014-.026-.02-.041l-.024-.046a.49.49 0 0 1-.019-.04c-.008-.014-.018-.029-.024-.046s-.013-.024-.02-.038l-.025-.049c-.006-.013-.012-.026-.018-.037l-.022-.046c-.008-.013-.014-.025-.023-.04s-.015-.032-.023-.049-.013-.023-.018-.034l-.088-.17c-.006-.009-.01-.019-.015-.028-.011-.017-.019-.036-.028-.054s-.015-.027-.021-.041-.016-.031-.025-.044-.012-.024-.019-.037-.017-.03-.026-.048c-.008-.013-.014-.028-.021-.041s-.015-.027-.022-.04-.016-.032-.025-.048-.012-.022-.018-.034-.018-.032-.026-.049-.013-.023-.019-.035-.016-.03-.023-.042-.017-.028-.023-.041-.017-.031-.025-.044-.013-.025-.02-.038l-.026-.045-.02-.038-.026-.046c-.006-.013-.012-.025-.02-.036l-.023-.045c-.009-.013-.014-.025-.023-.039s-.017-.03-.024-.045-.014-.024-.021-.035c-.008-.017-.017-.032-.026-.047s-.014-.022-.018-.033c-.009-.017-.02-.034-.028-.051-.008-.01-.013-.02-.018-.029-.009-.017-.018-.034-.028-.051-.006-.011-.014-.024-.02-.037s-.02-.03-.028-.047c-.004-.009-.011-.018-.016-.026a.73.73 0 0 0-.03-.054c-.004-.007-.01-.015-.012-.023a1.94 1.94 0 0 1-.053-.09c-.009-.017-.019-.032-.028-.049-.006-.01-.01-.019-.017-.028l-.03-.051c-.008-.011-.014-.027-.022-.039s-.017-.029-.026-.044-.014-.024-.02-.036l-.029-.045c-.005-.01-.013-.022-.019-.034s-.02-.032-.029-.048-.011-.02-.017-.03c-.011-.016-.021-.034-.03-.05s-.014-.022-.019-.031a.54.54 0 0 1-.03-.052c-.007-.009-.013-.019-.019-.028l-.03-.053c-.008-.009-.011-.018-.019-.026-.011-.021-.022-.041-.034-.059-.004-.007-.007-.014-.012-.021-.012-.02-.025-.04-.039-.062-.003-.004-.007-.012-.01-.018a1.38 1.38 0 0 1-.04-.064c-.024-.04-.04-.063-.052-.087l-.006-.005c-.54-.871-1.108-1.712-1.711-2.521-.892-1.203-1.853-2.338-2.875-3.396-.029-.031-.045-.046-.059-.063-.01-.01-.02-.019-.029-.029a.4.4 0 0 1-.035-.036.94.94 0 0 0-.032-.03c-.009-.011-.021-.022-.03-.033s-.024-.024-.035-.038c-.01-.008-.019-.017-.028-.024l-.039-.042a.12.12 0 0 1-.023-.022c-.014-.015-.029-.029-.045-.046-.006-.004-.011-.009-.017-.015-.016-.017-.032-.033-.048-.049a1.39 1.39 0 0 0-.067-.067 31.47 31.47 0 0 0-3.829-3.243c-.204-.147-.41-.29-.619-.431-.01-.008-.019-.014-.027-.021s-.022-.016-.034-.022a.29.29 0 0 1-.043-.031c-.008-.003-.017-.01-.024-.014-.018-.013-.036-.024-.053-.036-.007-.004-.014-.008-.019-.013a1.8 1.8 0 0 0-.056-.037c-.007-.005-.015-.009-.022-.015-.018-.011-.035-.023-.053-.036-.008-.003-.013-.008-.021-.011-.019-.014-.038-.028-.058-.039-.036-.024-.057-.036-.077-.052l-.078-.05-.081-.052-.235-.15c-2.109-1.326-4.383-2.383-6.788-3.121-.034-.009-.063-.019-.09-.026-.035-.011-.06-.02-.087-.027-.039-.012-.064-.02-.088-.026-.041-.012-.062-.019-.087-.027-.008-.001-.015-.003-.022-.004-.022-.008-.046-.014-.067-.022-.009 0-.015-.005-.024-.006a.94.94 0 0 0-.063-.019.11.11 0 0 0-.026-.006c-.021-.007-.041-.011-.061-.019-.011-.002-.021-.004-.032-.008-.017-.004-.036-.01-.055-.015-.011-.003-.021-.007-.033-.009-.019-.004-.039-.011-.056-.016l-.034-.009a.67.67 0 0 0-.056-.015c-.011-.005-.022-.008-.033-.009l-.058-.016c-.011-.002-.021-.004-.032-.008-.016-.005-.031-.008-.048-.012l-.2-.053-.085-.022c-.007-.001-.015-.005-.021-.005-.022-.006-.044-.011-.067-.018-.006-.001-.015-.003-.022-.005l-.066-.016a.17.17 0 0 0-.022-.004c-.021-.006-.043-.011-.063-.016-.009-.004-.017-.005-.028-.007-.021-.005-.041-.009-.063-.015-.009-.002-.016-.005-.024-.006-.021-.005-.044-.011-.066-.015-.007-.002-.016-.004-.023-.006-.022-.006-.044-.01-.066-.015-.008-.003-.015-.004-.022-.005-.021-.005-.044-.012-.067-.016-.007-.001-.016-.004-.023-.006-.023-.004-.046-.009-.068-.015l-.09-.019c-.041-.008-.067-.015-.091-.02-.038-.007-.065-.014-.089-.02-.039-.007-.064-.014-.092-.019h-.002l-.707-.141h-.002c-.028-.004-.055-.01-.082-.014l-.088-.016c-.037-.006-.061-.011-.089-.014a.85.85 0 0 0-.087-.016l-.09-.016a.15.15 0 0 0-.022-.002c-.022-.005-.047-.009-.067-.012-.009-.001-.017-.004-.024-.005l-.068-.009c-.008-.002-.018-.004-.027-.005l-.064-.01c-.009-.002-.019-.003-.027-.005-.021-.002-.043-.005-.064-.009-.01-.002-.018-.003-.029-.006-.019-.002-.041-.006-.063-.009l-.029-.003c-.019-.004-.041-.007-.062-.011-.01-.001-.021-.002-.034-.004-.02-.004-.038-.006-.058-.007-.012-.003-.025-.006-.037-.006l-.055-.008c-.014-.003-.026-.005-.042-.006s-.034-.004-.051-.008c-.028-.002-.055-.008-.083-.011l-.031-.001-1.154.034-.001.001z" fill="url(#L)"/><path d="M46.862 17.998l-.046 2.386 1.178-.034.046-2.392-1.178.04z" class="B"/><path d="M47.994 20.35c4.091.545 7.883 1.974 11.26 4.097 3.325 2.093 6.257 4.864 8.691 8.143 2.405 3.238 4.333 6.986 5.68 11.09 1.34 4.071 2.115 8.515 2.219 13.187l1.711-.036c-.097-4.959-.907-9.672-2.315-13.997-1.421-4.363-3.46-8.349-6.007-11.799-2.576-3.497-5.686-6.453-9.217-8.688-3.59-2.273-7.621-3.804-11.976-4.389l-.046 2.392z" fill="url(#M)"/><path d="M43.072 105.695l1.155.252.823-43.561-1.165-.109-.813 43.418z" fill="url(#N)"/><path d="M43.885 62.279l1.165.107.268-.01-1.166-.105-.267.008z" class="B"/></g><path d="M44.227 105.909l.823-43.523.265.005-.824 43.523-.264-.005z" class="B"/><g class="C"><path d="M44.807 12.995l-.832 44.456 1.167.092.844-44.606-1.179.058z" fill="url(#O)"/><path d="M45.142 57.543l.268-.006.845-44.58-.269-.02-.844 44.606z" class="B"/><path d="M36.142 98.582l1.561.262 1.579.171 1.595.08 1.607-.015-1.152-.229-1.607.017-1.595-.08-1.578-.175-1.558-.264 1.148.233z" fill="url(#P)"/><path d="M35.038 98.358l-.044-.009.044.009zm.047.011h.007l-.054-.011.047.011zm.011.001zm1.046.212l.189.035.085.018.596.103.795.121.782.094h.002l.082.008c.012.002.025.004.038.004s.018.002.026.003.023.003.034.005l.052.004.836.068-1.154-.231-.139-.009-.236-.017-.147-.015-.364-.031-.88-.103-.358-.05-1.138-.191c-.014-.002-.028-.006-.041-.008l-.03-.006c-.025-.006-.051-.01-.076-.014l1.046.212z" fill="url(#Q)"/><path d="M39.659 99.045l.703.035.696.02.169.001.547-.001.71-.02-1.152-.229-1.607.017-1.031-.04-.05-.005h-.022a1.46 1.46 0 0 0-.117-.009l1.154.231z" fill="url(#R)"/><path d="M9.381 77.115c1.466 4.176 3.498 7.955 5.98 11.218 2.452 3.225 5.334 5.938 8.528 8.03 3.146 2.06 6.591 3.516 10.22 4.269l1.149.239c-3.633-.756-7.081-2.213-10.231-4.28-3.197-2.097-6.081-4.816-8.535-8.053-2.484-3.273-4.521-7.066-5.984-11.253-1.478-4.225-2.371-8.832-2.561-13.694l-1.126-.119c.192 4.842 1.084 9.436 2.56 13.643z" fill="url(#S)"/><path d="M8.109 72.806c0 .008.004.014.004.02l.019.07c.001.012.006.022.008.034l.014.062.012.043c.002.017.007.035.011.052l.015.051c.003.016.005.031.011.047.003.022.009.041.014.062l.01.034.019.076c.003.007.003.015.005.023l1.13 3.735c1.406 4.012 3.339 7.656 5.687 10.83.023.029.038.051.055.072.023.033.038.052.052.07.006.01.013.018.021.027s.021.028.028.042.02.023.029.035.013.021.022.031c.013.016.024.031.036.047.332.438.662.855 1.001 1.266l.625.734c.021.023.038.047.057.067s.04.045.057.064c.024.026.043.047.059.066l.057.065c.028.029.044.048.061.068s.039.044.057.062c.005.007.008.01.015.017.045.054.094.107.143.16.005.005.013.013.02.021s.019.019.028.029l.035.039c.007.01.014.018.021.026.015.013.026.027.039.04s.016.019.024.028c.014.009.027.027.039.041.007.006.014.015.023.023l.038.042c.007.007.014.015.022.023a.96.96 0 0 0 .043.047c.005.005.01.012.015.017.016.016.032.033.048.05.004.005.009.011.015.015.016.02.034.037.05.053l.063.068c.029.029.048.051.068.071l.065.068a34.24 34.24 0 0 0 3.383 3.083c.024.02.048.038.069.055.028.024.048.037.067.053.007.006.014.009.02.016.017.011.032.025.048.038a.12.12 0 0 1 .026.02c.014.01.028.022.041.032s.022.015.031.025.025.02.036.03.024.015.037.023.019.017.03.025.029.022.041.032c.008.005.016.013.026.019a1.26 1.26 0 0 0 .044.033c.007.008.012.01.018.016.019.014.035.025.053.04.795.603 1.597 1.155 2.424 1.666a30.13 30.13 0 0 0 1.77 1.028c.029.015.05.025.07.037.033.015.055.027.072.037.035.02.055.03.075.04a.59.59 0 0 0 .072.036c.008.004.014.009.021.012.017.01.035.017.051.025.01.007.017.01.026.014.016.008.032.018.049.025.007.006.018.01.026.015.017.007.032.015.048.025s.03.013.045.023c.008.004.017.01.027.014a3.78 3.78 0 0 1 .156.078c.027.013.052.023.077.037s.054.03.078.037a1.23 1.23 0 0 0 .08.041h.001c.024.014.05.025.076.037 2.141 1.041 4.386 1.817 6.71 2.308h.002c.028.005.057.013.084.018l1.149.239c-.028-.008-.054-.012-.081-.02-.018-.002-.036-.005-.054-.009-.01-.003-.018-.004-.027-.006l-.058-.012c-.005-.002-.014-.003-.022-.003l-.064-.015-.082-.019-.083-.019c-.034-.006-.058-.012-.081-.018-.032-.008-.057-.011-.082-.018s-.055-.013-.081-.019v-.002c-3.372-.79-6.573-2.188-9.516-4.12-3.197-2.097-6.081-4.816-8.535-8.053a33.46 33.46 0 0 1-.948-1.306l-.048-.068a1.14 1.14 0 0 0-.047-.068c-.006-.009-.011-.017-.019-.026-.009-.016-.02-.031-.032-.049-.007-.012-.015-.024-.024-.035s-.017-.024-.024-.035-.022-.03-.031-.047c-.007-.01-.015-.02-.021-.032-.014-.015-.025-.035-.037-.052-.003-.008-.01-.014-.014-.021-.016-.024-.031-.045-.046-.069-1.467-2.188-2.742-4.563-3.799-7.105-.675-1.626-1.261-3.317-1.751-5.065-.008-.031-.016-.064-.026-.096l-.027-.094c-.001-.008-.003-.015-.005-.021-.007-.025-.012-.049-.021-.072-.001-.01-.005-.022-.007-.032-.006-.017-.011-.037-.015-.054s-.01-.033-.014-.051c-.002-.005-.004-.015-.007-.022a47.39 47.39 0 0 1-1.307-6.896l-1.125-.133c.225 1.959.565 3.87 1.012 5.717z" fill="url(#T)"/><path d="M6.866 64.386l.02.334.028.393.012.179.08.903.091.894 1.125.133-.216-2.473-.001-.029-.014-.211-.044-.918-1.126-.119.045.914z" fill="url(#U)"/><path d="M6.822 63.472l1.125.119 2.292-.074-1.128-.12-2.289.075z" class="B"/><path d="M7.947 63.591c.22 5.649 1.39 10.955 3.323 15.71 1.912 4.707 4.562 8.845 7.757 12.235 3.149 3.34 6.817 5.942 10.823 7.639a28.53 28.53 0 0 0 12.591 2.255l.043-2.35c-4.13.162-8.112-.617-11.795-2.21-3.743-1.617-7.167-4.069-10.104-7.209-2.978-3.185-5.446-7.064-7.231-11.466-1.801-4.446-2.897-9.401-3.115-14.678l-2.292.074z" fill="url(#V)"/></g><path d="M3.243 61.277l-1.091-.109.035-.351 1.091.109-.035.351z" class="B"/><g class="C"><path d="M2.156 60.816l1.122.109 39.938-1.072-1.166-.099-39.894 1.062z" fill="url(#W)"/><path d="M3.278 60.925l-.005.354 39.937-1.102.005-.325-39.937 1.073z" class="B"/><path d="M41.916 17.757c-4.372.159-8.615 1.305-12.564 3.293-4.012 2.022-7.705 4.909-10.9 8.497-3.231 3.63-5.938 7.963-7.929 12.811-2.005 4.877-3.277 10.247-3.635 15.899l1.126.102c.36-5.674 1.634-11.063 3.643-15.959 1.999-4.865 4.708-9.214 7.944-12.856 3.197-3.601 6.897-6.497 10.913-8.526 3.952-1.995 8.2-3.143 12.575-3.303l-1.173.042z" fill="url(#X)"/><path d="M6.888 58.257l1.121.101h.005c.001-.027.005-.054.003-.077l.039-.538-1.126-.096-.042.61z" fill="url(#Y)"/><path d="M7.811 51.293l-.379 2.086-.174 1.162c0 .012-.004.024-.005.036l-.005.042-.318 3.028 1.126.096c.219-2.895.675-5.715 1.346-8.43L8.3 49.246h-.028l-.461 2.047z" fill="url(#Z)"/><path d="M10.266 42.992l-.748 2.032-.667 2.085-.579 2.135 1.123.068h.007a49.79 49.79 0 0 1 2.255-6.912l.577-1.346v-.001l-1.121-.037h-.014l-.833 1.976z" fill="url(#a)"/><path d="M16.769 31.563l-.023.029c-.012.013-.02.027-.03.04l-1.538 2.099-1.486 2.306-1.362 2.431-1.231 2.548 1.12.037h.016l.323-.711c.008-.014.014-.03.02-.043l.023-.045.096-.205v-.003l.772-1.549.433-.811.047-.087.86-1.501c.008-.014.016-.027.025-.039.004-.011.012-.02.017-.03s.008-.01.011-.017l.049-.083.061-.102c.008-.011.013-.022.019-.032l.036-.057.024-.037.037-.061.03-.051.036-.058c.009-.013.018-.029.026-.042l.03-.048.025-.041.048-.08c.01-.011.016-.025.026-.037.009-.017.021-.033.031-.05l.025-.041.035-.053.02-.034.053-.083c.008-.01.013-.02.02-.032.013-.018.026-.039.036-.058.009-.011.016-.022.023-.033l.048-.073.065-.101.016-.026.044-.068c.005-.006.011-.014.015-.023l.059-.09.059-.089.014-.021.053-.079.066-.101c.005-.006.008-.012.013-.017l.048-.073.015-.024.054-.081.062-.091.024-.035.033-.049.029-.041.025-.036.062-.091c.006-.008.011-.017.017-.026l.038-.054c.006-.008.011-.018.019-.027l.121-.174.021-.029.037-.052c.005-.008.01-.017.017-.025l.073-.104.014-.019.038-.053c.007-.008.012-.018.02-.029l.036-.052.091-.123c.004-.009.008-.015.015-.022.012-.019.027-.038.041-.057l.014-.018.135-.187.819-1.082-1.144-.005z" fill="url(#b)"/><path d="M34.221 19.079c-.021.004-.028.008-.037.011l-.065.021-.03.008-.065.02-.024.01c-.03.007-.06.017-.09.027l-.086.028c-.012.005-.024.008-.034.011l-.056.02c-.012.001-.024.006-.034.01-.02.008-.039.013-.057.018l-.033.012-.079.027-.042.014-.05.017-.044.015-.04.013c-.015.006-.033.011-.05.017-.009.003-.022.009-.036.011l-.187.067-.081.028c-.007.003-.014.004-.021.008l-.065.024c-1.199.431-2.373.935-3.519 1.512a34.56 34.56 0 0 0-4.568 2.763 37.4 37.4 0 0 0-4.233 3.527c-1.264 1.216-2.463 2.534-3.587 3.943l-.055.067c-.006.011-.013.019-.021.027l-.038.05-.041.052c-.009.009-.016.02-.025.03l-.05.065 1.144.005.387-.486c.003-.005.009-.01.013-.016l.038-.047.033-.044c.009-.009.019-.019.027-.03l2.476-2.782.073-.074c.006-.004.009-.01.015-.016l.072-.072.019-.02.048-.049.04-.041.028-.027.047-.048.819-.794.061-.059c.006-.008.016-.013.022-.022.016-.013.029-.026.043-.039l.058-.054.089-.082.081-.075 2.76-2.312.032-.024.041-.031.043-.034c.009-.005.016-.011.024-.017l1.489-1.06c.009-.007.017-.013.027-.018.014-.011.028-.019.043-.029l.047-.032c.009-.007.018-.013.028-.017a34.12 34.12 0 0 1 3.612-2.111c1.252-.628 2.532-1.173 3.838-1.628l.085-.028c.014-.006.024-.011.04-.015s.026-.008.038-.014l.057-.019.772-.252-1.166.04z" fill="url(#c)"/><path d="M41.916 17.757l-.077.003-1.874.135-1.934.265-1.917.396-1.853.509-.04.014 1.166-.04 2.901-.747.061-.014.078-.014.775-.144 1.937-.269 1.95-.136-1.173.042z" fill="url(#d)"/><path d="M31.143 20.709c-4.116 1.97-7.914 4.846-11.204 8.456-3.328 3.657-6.119 8.049-8.173 12.979-2.072 4.964-3.384 10.442-3.752 16.215l2.293-.051c.36-5.397 1.593-10.516 3.525-15.158 1.923-4.61 4.525-8.722 7.628-12.151 3.067-3.39 6.611-6.1 10.457-7.969 3.787-1.842 7.854-2.861 12.039-2.921l.043-2.413c-4.462.023-8.804 1.075-12.856 3.013z" fill="url(#e)"/><path d="M169.214 74.469c.361-.01 3.385-.406 4.707-3.883l8.365-27.549c-.004 0 .453-2.195-.564-3.424-.488-.591-1.274-.876-2.334-.851l-.111.004-29.958 1.176c-.025 2.813-.843 15.645-13.335 20.797l-.2.505c1.284 1.066 5.289 5.196 4.619 11.363-.265 2.442-4.427 21.861-19.259 23.542l-61.373 7.439c-.018 0-.032.002-.049.002-.176.005-.34-.075-.447-.217a.54.54 0 0 1-.067-.533l7.17-17.368c.078-.183.248-.308.606-.331l47.601-4.924c1.182-.064 2.397-.814 3.279-1.959.907-1.172 1.362-2.699 1.284-4.297-.157-3.205-2.604-5.908-5.301-5.843l-31.471 1.665c-.379.009-.549-.146-.656-.3s-.145-.477-.072-.651l6.23-14.377c.082-.189.266-.319.473-.328l35.217-1.768c1.316-.065 2.572-.808 3.458-1.954.905-1.172 1.362-2.698 1.284-4.297-.157-3.203-2.477-5.756-5.17-5.692l-49.358 2.548a.54.54 0 0 1-.472-.231c-.104-.153-.125-.349-.055-.521l6.252-14.768a.54.54 0 0 1 .488-.331l112.809-2.759c.008-.004.209-.03.515-.036 1.102-.027 3.172.164 4.663 1.747 1.271 1.347 1.804 3.377 1.584 6.034-1.081 7.27-10.678 41.489-12.625 49.274-1.67 6.676-7.881 7.996-8.688 7.959l-41.982 5.663c-.18.025-.364-.055-.479-.201a.54.54 0 0 1-.088-.511l14.436-42.306a.54.54 0 0 1 .48-.364l14.25-.915c.174-.004.328.175.44.313a.54.54 0 0 1 .097.487l-8.048 24.021 11.855-1.05z" fill="#7a7778"/><path d="M196.66 24.237l-.516.035-112.809 2.759c-.215.006-.404.134-.488.331l-6.193 14.671c-.072.172-.049.369.057.522a.53.53 0 0 0 .47.231l49.299-2.451c2.693-.065 5.014 2.488 5.17 5.691.076 1.599-.379 3.125-1.283 4.296-.887 1.147-2.096 1.811-3.412 1.876l-35.2 1.765c-.207.01-.391.139-.472.329l-6.166 14.611c-.072.172-.053.369.055.523s.283.221.47.23l31.76-1.648c2.695-.066 5.015 2.486 5.17 5.69.08 1.6-.377 3.125-1.284 4.299-.882 1.144-2.095 1.81-3.439 1.876L70.46 84.768c-.197.021-.367.147-.444.328l-7.354 17.422c-.074.177-.051.382.064.535a.55.55 0 0 0 .448.217c.017 0 .032-.002.048-.004l61.262-7.199c14.831-1.68 18.992-21.1 19.259-23.542.671-6.167-3.338-10.296-4.618-11.362l.199-.507c12.492-5.149 13.311-17.983 13.336-20.796l29.956-1.176.112-.004c1.061-.025 1.846.261 2.334.851 1.017 1.229.56 3.425.562 3.425l-8.365 27.548c-1.322 3.477-4.285 3.65-4.646 3.66l-11.854 1.047 7.998-24.022c.049-.169.014-.349-.097-.488s-.28-.205-.454-.2l-14.229.886c-.222.014-.411.16-.481.367l-14.293 42.055c-.059.176-.023.365.089.51s.299.224.479.203l41.822-5.271c.807.037 7.02-1.283 8.688-7.959 1.947-7.785 11.545-42.004 12.623-49.275.221-2.657-.31-4.687-1.582-6.034-1.41-1.497-3.338-1.748-4.475-1.748l-.187.002z" fill="url(#f)"/><g fill="#c3c1c2"><path d="M61.668 109.964h-2.193v-1.853h6.851v1.853h-2.142v11.917h-2.516v-11.917zm5.831-1.853h5.78v1.768h-3.281v3.961h2.584v1.751h-2.584v4.573h3.315v1.717h-5.814v-13.77zm10.982 13.957c-1.428 0-2.439-.4-3.034-1.199s-.893-1.929-.893-3.391v-4.913c0-1.507.295-2.652.884-3.434s1.604-1.173 3.043-1.173c1.349 0 2.307.34 2.873 1.02s.85 1.66.85 2.941v1.156H79.79v-1.19c0-.487-.022-.87-.068-1.148a1.16 1.16 0 0 0-.348-.68c-.187-.175-.479-.263-.876-.263-.408 0-.714.093-.918.28s-.337.437-.399.748-.094.717-.094 1.216v5.967c0 .782.102 1.346.306 1.691s.573.519 1.105.519c.386 0 .672-.091.859-.272s.306-.422.357-.723.076-.699.076-1.198v-1.241h2.414v1.105c0 1.326-.277 2.354-.833 3.085s-1.518 1.097-2.89 1.097zm5.508-13.957h2.499v5.746h2.805v-5.746h2.516v13.77h-2.516v-6.222h-2.805v6.222h-2.499v-13.77z"/><use xlink:href="#g"/><path d="M103.25 108.111h2.482v13.77h-2.482zm8.313 13.957c-1.428 0-2.439-.4-3.034-1.199s-.893-1.929-.893-3.391v-4.913c0-1.507.295-2.652.884-3.434s1.604-1.173 3.043-1.173c1.349 0 2.307.34 2.873 1.02s.85 1.66.85 2.941v1.156h-2.414v-1.19c0-.487-.022-.87-.068-1.148a1.16 1.16 0 0 0-.348-.68c-.187-.175-.479-.263-.876-.263-.408 0-.714.093-.918.28s-.337.437-.399.748-.094.717-.094 1.216v5.967c0 .782.102 1.346.306 1.691s.573.519 1.105.519c.386 0 .672-.091.859-.272s.306-.422.357-.723.076-.699.076-1.198v-1.241h2.414v1.105c0 1.326-.277 2.354-.833 3.085s-1.518 1.097-2.89 1.097zm7.531-13.957h2.686l2.754 13.77h-2.329l-.544-3.179h-2.397l-.561 3.179h-2.363l2.754-13.77zm2.295 8.993l-.935-5.78-.935 5.78h1.87zm4.522-8.993h2.499v12.053h3.349v1.717h-5.848v-13.77zm11.288 0h3.247c1.111 0 1.984.15 2.618.45a2.65 2.65 0 0 1 1.352 1.377c.266.618.399 1.437.399 2.457v5.015c0 1.043-.133 1.887-.399 2.533a2.78 2.78 0 0 1-1.335 1.453c-.623.323-1.467.485-2.533.485h-3.349v-13.77zm3.281 12.019c.556 0 .958-.096 1.207-.289s.408-.462.476-.808.102-.858.102-1.538v-5.27c0-.612-.039-1.077-.119-1.394s-.246-.553-.501-.706-.655-.229-1.199-.229h-.748v10.234h.782zm6.188-12.019h5.78v1.768h-3.281v3.961h2.584v1.751h-2.584v4.573h3.315v1.717h-5.814v-13.77zm10.744 13.957c-1.246 0-2.178-.351-2.796-1.054s-.955-1.751-1.012-3.145l2.159-.425c.034.873.173 1.538.417 1.997a1.21 1.21 0 0 0 1.147.689c.386 0 .672-.116.859-.349s.28-.546.28-.943c0-.544-.121-1.006-.365-1.386s-.626-.796-1.148-1.249l-1.734-1.513c-.532-.453-.932-.941-1.198-1.462s-.4-1.145-.4-1.87c0-1.077.315-1.913.944-2.508s1.499-.892 2.609-.892c1.19 0 2.043.337 2.559 1.011s.813 1.584.892 2.729l-2.159.374c-.034-.748-.138-1.312-.314-1.692s-.519-.569-1.029-.569c-.362 0-.646.122-.85.365s-.306.553-.306.927c0 .442.088.813.264 1.113s.462.621.858.961l1.717 1.513c.646.555 1.151 1.15 1.513 1.785s.544 1.371.544 2.21c0 .657-.144 1.241-.433 1.751s-.694.909-1.216 1.198-1.122.434-1.802.434zm4.998-13.957h2.482v13.77h-2.482zm8.058 13.957c-1.303 0-2.241-.405-2.813-1.216s-.859-1.98-.859-3.51v-4.624c0-1.575.295-2.763.884-3.562s1.604-1.198 3.043-1.198c1.36 0 2.335.337 2.924 1.011s.884 1.675.884 3.001v.714h-2.397v-.782c0-.499-.031-.895-.093-1.19s-.193-.521-.391-.68-.496-.238-.893-.238c-.419 0-.731.102-.935.306s-.337.465-.399.782-.094.731-.094 1.241v5.763c0 .782.105 1.366.315 1.751s.603.578 1.181.578c.567 0 .961-.204 1.182-.612s.331-1.02.331-1.836v-1.292h-1.479v-1.581h3.74v6.987h-1.632l-.17-1.343c-.43 1.02-1.207 1.53-2.329 1.53z"/><use xlink:href="#g" x="82.603"/><path d="M186.64 108.192h.753v7.463h2.28v.565h-3.033v-8.028zm4.767.585h-1.516v-.585h3.746v.585h-1.476v7.443h-.754v-7.443zm3.003-.585h1.745c.793 0 1.354.203 1.685.609s.495.99.495 1.75v3.191c0 .799-.16 1.412-.481 1.838s-.863.64-1.63.64h-1.814v-8.028zm1.765 7.463c.403 0 .705-.084.906-.253a1.17 1.17 0 0 0 .392-.674c.06-.281.089-.649.089-1.105v-2.993c0-.436-.036-.785-.109-1.046s-.211-.461-.416-.599-.502-.208-.892-.208h-.981v6.878h1.011z"/></g></g><defs><linearGradient id="A" x1="0" y1="0" x2="1" y2="0" gradientTransform="matrix(-0.999001,92.955,92.955,0.999001,60.74,13.176)" xlink:href="#h"><stop offset="0" stop-color="#666767"/><stop offset="1" stop-color="#221f20"/></linearGradient><linearGradient id="B" x1="0" y1="0" x2="1" y2="0" gradientTransform="matrix(-1.001,93.22,93.22,1.001,49.99,12.926)" xlink:href="#h"><stop offset="0" stop-color="#666767"/><stop offset="1" stop-color="#221f20"/></linearGradient><linearGradient id="C" x1="0" y1="0" x2="1" y2="0" gradientTransform="matrix(-0.996002,92.691,92.691,0.996002,60.99,13.426)" xlink:href="#h"><stop offset="0" stop-color="#666767"/><stop offset="1" stop-color="#221f20"/></linearGradient><linearGradient id="D" x1="0" y1="0" x2="1" y2="0" gradientTransform="matrix(-1.003,93.36,93.36,1.003,70.115,13.176)" xlink:href="#h"><stop offset="0" stop-color="#666767"/><stop offset="1" stop-color="#221f20"/></linearGradient><linearGradient id="E" x1="0" y1="0" x2="1" y2="0" gradientTransform="matrix(-1,93.108,93.108,1,73.24,13.176)" xlink:href="#h"><stop offset="0" stop-color="#666767"/><stop offset="1" stop-color="#221f20"/></linearGradient><linearGradient id="F" x1="0" y1="0" x2="1" y2="0" gradientTransform="matrix(-1.007,93.729,93.729,1.007,74.615,12.926)" xlink:href="#h"><stop offset="0" stop-color="#666767"/><stop offset="1" stop-color="#221f20"/></linearGradient><linearGradient id="G" x1="0" y1="0" x2="1" y2="0" gradientTransform="matrix(-0.849998,79.096,79.096,0.849998,75.24,20.551)" xlink:href="#h"><stop offset="0" stop-color="#666767"/><stop offset="1" stop-color="#221f20"/></linearGradient><linearGradient id="H" x1="0" y1="0" x2="1" y2="0" gradientTransform="matrix(70.898,-90.812,-90.812,-70.898,22.833,122.551)" xlink:href="#h"><stop offset="0" stop-color="#fff"/><stop offset="1" stop-color="#221f20"/></linearGradient><linearGradient id="I" x1="0" y1="0" x2="1" y2="0" gradientTransform="matrix(-1.659,100.353,100.353,1.659,64.24,11.926)" xlink:href="#h"><stop offset="0" stop-color="#666767"/><stop offset="1" stop-color="#221f20"/></linearGradient><linearGradient id="J" x1="0" y1="0" x2="1" y2="0" gradientTransform="matrix(-0.998001,92.891,92.891,0.998001,61.365,13.301)" xlink:href="#h"><stop offset="0" stop-color="#666767"/><stop offset="1" stop-color="#221f20"/></linearGradient><linearGradient id="K" x1="0" y1="0" x2="1" y2="0" gradientTransform="matrix(-0.985001,91.68,91.68,0.985001,75.24,13.926)" xlink:href="#h"><stop offset="0" stop-color="#666767"/><stop offset="1" stop-color="#221f20"/></linearGradient><linearGradient id="L" x1="0" y1="0" x2="1" y2="0" gradientTransform="matrix(-0.998001,92.873,92.873,0.998001,61.115,13.301)" xlink:href="#h"><stop offset="0" stop-color="#666767"/><stop offset="1" stop-color="#221f20"/></linearGradient><linearGradient id="M" x1="0" y1="0" x2="1" y2="0" gradientTransform="matrix(71.005,-90.95,-90.95,-71.005,-0.51,104.301)" xlink:href="#h"><stop offset="0" stop-color="#fff"/><stop offset="1" stop-color="#221f20"/></linearGradient><linearGradient id="N" x1="0" y1="0" x2="1" y2="0" gradientTransform="matrix(-1.681,101.636,101.636,1.681,44.99,10.926)" xlink:href="#h"><stop offset="0" stop-color="#666767"/><stop offset="1" stop-color="#221f20"/></linearGradient><linearGradient id="O" x1="0" y1="0" x2="1" y2="0" gradientTransform="matrix(-1.679,101.538,101.538,1.679,45.24,10.926)" xlink:href="#h"><stop offset="0" stop-color="#666767"/><stop offset="1" stop-color="#221f20"/></linearGradient><linearGradient id="P" x1="0" y1="0" x2="1" y2="0" gradientTransform="matrix(-1.02,94.915,94.915,1.02,39.115,11.176)" xlink:href="#h"><stop offset="0" stop-color="#666767"/><stop offset="1" stop-color="#221f20"/></linearGradient><linearGradient id="Q" x1="0" y1="0" x2="1" y2="0" gradientTransform="matrix(-0.956001,88.983,88.983,0.956001,37.615,16.551)" xlink:href="#h"><stop offset="0" stop-color="#666767"/><stop offset="1" stop-color="#221f20"/></linearGradient><linearGradient id="R" x1="0" y1="0" x2="1" y2="0" gradientTransform="matrix(-0.956001,88.983,88.983,0.956001,40.99,16.801)" xlink:href="#h"><stop offset="0" stop-color="#666767"/><stop offset="1" stop-color="#221f20"/></linearGradient><linearGradient id="S" x1="0" y1="0" x2="1" y2="0" gradientTransform="matrix(-0.999001,93.013,93.013,0.999001,21.115,12.676)" xlink:href="#h"><stop offset="0" stop-color="#666767"/><stop offset="1" stop-color="#221f20"/></linearGradient><linearGradient id="T" x1="0" y1="0" x2="1" y2="0" gradientTransform="matrix(-0.999001,92.967,92.967,0.999001,21.365,12.801)" xlink:href="#h"><stop offset="0" stop-color="#666767"/><stop offset="1" stop-color="#221f20"/></linearGradient><linearGradient id="U" x1="0" y1="0" x2="1" y2="0" gradientTransform="matrix(-1.003,93.324,93.324,1.003,7.615,12.301)" xlink:href="#h"><stop offset="0" stop-color="#666767"/><stop offset="1" stop-color="#221f20"/></linearGradient><linearGradient id="V" x1="0" y1="0" x2="1" y2="0" gradientTransform="matrix(70.927,-90.851,-90.851,-70.927,2.771,106.551)" xlink:href="#h"><stop offset="0" stop-color="#fff"/><stop offset="1" stop-color="#221f20"/></linearGradient><linearGradient id="W" x1="0" y1="0" x2="1" y2="0" gradientTransform="matrix(-1.651,99.844,99.844,1.651,23.115,11.426)" xlink:href="#h"><stop offset="0" stop-color="#666767"/><stop offset="1" stop-color="#221f20"/></linearGradient><linearGradient id="X" x1="0" y1="0" x2="1" y2="0" gradientTransform="matrix(-0.999001,93.024,93.024,0.999001,24.865,12.801)" xlink:href="#h"><stop offset="0" stop-color="#666767"/><stop offset="1" stop-color="#221f20"/></linearGradient><linearGradient id="Y" x1="0" y1="0" x2="1" y2="0" gradientTransform="matrix(-1.02,94.915,94.915,1.02,7.49,11.676)" xlink:href="#h"><stop offset="0" stop-color="#666767"/><stop offset="1" stop-color="#221f20"/></linearGradient><linearGradient id="Z" x1="0" y1="0" x2="1" y2="0" gradientTransform="matrix(-1.002,93.266,93.266,1.002,8.24,12.426)" xlink:href="#h"><stop offset="0" stop-color="#666767"/><stop offset="1" stop-color="#221f20"/></linearGradient><linearGradient id="a" x1="0" y1="0" x2="1" y2="0" gradientTransform="matrix(-1.003,93.36,93.36,1.003,10.115,12.551)" xlink:href="#h"><stop offset="0" stop-color="#666767"/><stop offset="1" stop-color="#221f20"/></linearGradient><linearGradient id="b" x1="0" y1="0" x2="1" y2="0" gradientTransform="matrix(-1.001,93.22,93.22,1.001,14.24,12.676)" xlink:href="#h"><stop offset="0" stop-color="#666767"/><stop offset="1" stop-color="#221f20"/></linearGradient><linearGradient id="c" x1="0" y1="0" x2="1" y2="0" gradientTransform="matrix(-0.997,92.797,92.797,0.997,25.99,12.801)" xlink:href="#h"><stop offset="0" stop-color="#666767"/><stop offset="1" stop-color="#221f20"/></linearGradient><linearGradient id="d" x1="0" y1="0" x2="1" y2="0" gradientTransform="matrix(-1.016,94.545,94.545,1.016,38.49,12.926)" xlink:href="#h"><stop offset="0" stop-color="#666767"/><stop offset="1" stop-color="#221f20"/></linearGradient><linearGradient id="e" x1="0" y1="0" x2="1" y2="0" gradientTransform="matrix(70.813,-90.703,-90.703,-70.813,-21.073,88.051)" xlink:href="#h"><stop offset="0" stop-color="#fff"/><stop offset="1" stop-color="#221f20"/></linearGradient><linearGradient id="f" x1="0" y1="0" x2="1" y2="0" gradientTransform="matrix(113.015,41.134,41.134,-113.015,75.983,43.872)" xlink:href="#h"><stop offset="0" stop-color="#ed1f23"/><stop offset=".2" stop-color="#e22327"/><stop offset=".5" stop-color="#5f4a42"/><stop offset=".6" stop-color="#242123"/><stop offset=".8" stop-color="#494f7e"/><stop offset=".9" stop-color="#3852a4"/></linearGradient><path id="g" d="M93.917 108.111h1.751l3.349 7.854v-7.854h2.074v13.77h-1.666l-3.366-8.228v8.228h-2.142v-13.77z"/><linearGradient id="h" gradientUnits="userSpaceOnUse"/></defs></svg>